<?xml version="1.0" encoding="utf-8"?>
<!-- Generator: Adobe Illustrator 28.3.0, SVG Export Plug-In . SVG Version: 6.00 Build 0)  -->
<svg version="1.1" id="Layer_1" xmlns="http://www.w3.org/2000/svg" xmlns:xlink="http://www.w3.org/1999/xlink" x="0px" y="0px"
	 viewBox="0 0 1024 768" style="enable-background:new 0 0 1024 768;" xml:space="preserve">
<style type="text/css">
	.st0{clip-path:url(#SVGID_00000076583596051365216710000007707967574841400465_);}
	.st1{fill:#FF302F;}
	.st2{fill:#20B15A;}
	.st3{fill:#3686F7;}
	.st4{fill:#FFBA40;}
</style>
<g>
	<defs>
		<rect id="SVGID_1_" x="380.9" y="304.9" width="193" height="63"/>
	</defs>
	<clipPath id="SVGID_00000146464439256583246310000003004427199396720275_">
		<use xlink:href="#SVGID_1_"  style="overflow:visible;"/>
	</clipPath>
	<g style="clip-path:url(#SVGID_00000146464439256583246310000003004427199396720275_);">
		<path class="st1" d="M567.9,343.4l5.4,3.6c-1.7,2.5-5.9,6.9-13.1,6.9c-8.9,0-15.6-6.9-15.6-15.6c0-9.3,6.7-15.6,14.8-15.6
			c8.1,0,12.1,6.4,13.4,9.9l0.7,1.8l-21,8.6c1.6,3.1,4.1,4.7,7.6,4.7C563.7,347.7,566.1,346,567.9,343.4z M551.4,337.8l14-5.8
			c-0.8-1.9-3.1-3.3-5.8-3.3C556.1,328.6,551.2,331.7,551.4,337.8z"/>
		<path class="st2" d="M534.5,306.7h6.8v45.7h-6.8V306.7L534.5,306.7z"/>
		<path class="st3" d="M523.8,323.9h6.5v27.8c0,11.5-6.8,16.3-14.9,16.3c-7.6,0-12.2-5.1-13.9-9.2l6-2.5c1.1,2.5,3.7,5.6,7.9,5.6
			c5.2,0,8.4-3.2,8.4-9.2v-2.2h-0.2c-1.5,1.9-4.5,3.6-8.3,3.6c-7.8,0-15-6.8-15-15.6c0-8.8,7.2-15.7,15-15.7c3.7,0,6.7,1.7,8.3,3.5
			h0.2V323.9L523.8,323.9z M524.3,338.3c0-5.5-3.7-9.5-8.4-9.5c-4.7,0-8.7,4-8.7,9.5c0,5.4,4,9.4,8.7,9.4
			C520.6,347.7,524.3,343.7,524.3,338.3L524.3,338.3z"/>
		<path class="st1" d="M463.1,338.2c0,9-7,15.6-15.7,15.6c-8.6,0-15.7-6.6-15.7-15.6c0-9,7-15.6,15.7-15.6
			C456.1,322.5,463.1,329.1,463.1,338.2z M456.3,338.2c0-5.6-4.1-9.5-8.8-9.5c-4.7,0-8.8,3.9-8.8,9.5c0,5.6,4.1,9.5,8.8,9.5
			C452.2,347.6,456.3,343.7,456.3,338.2z"/>
		<path class="st4" d="M497.4,338.2c0,9-7,15.6-15.7,15.6c-8.6,0-15.7-6.6-15.7-15.6c0-9,7-15.6,15.7-15.6
			C490.4,322.6,497.4,329.2,497.4,338.2z M490.5,338.2c0-5.6-4.1-9.5-8.8-9.5c-4.7,0-8.8,3.9-8.8,9.5c0,5.6,4.1,9.5,8.8,9.5
			C486.5,347.7,490.5,343.8,490.5,338.2z"/>
		<path class="st3" d="M406,347c-9.8,0-17.5-7.9-17.5-17.7s7.7-17.7,17.5-17.7c5.3,0,9.2,2.1,12,4.7l4.7-4.7
			c-4-3.8-9.3-6.7-16.8-6.7c-13.5,0-24.8,10.9-24.8,24.3s11.3,24.3,24.8,24.3c7.3,0,12.8-2.4,17.1-6.8c4.4-4.4,5.8-10.6,5.8-15.6
			c0-1.6-0.2-3.2-0.4-4.4H406v6.5h16c-0.5,4.1-1.8,6.8-3.7,8.7C416,344.5,412.4,347,406,347z"/>
	</g>
</g>
</svg>
