<?xml version="1.0" encoding="utf-8"?>
<!-- Generator: Adobe Illustrator 28.3.0, SVG Export Plug-In . SVG Version: 6.00 Build 0)  -->
<svg version="1.1" id="Layer_1" xmlns="http://www.w3.org/2000/svg" xmlns:xlink="http://www.w3.org/1999/xlink" x="0px" y="0px"
	 viewBox="0 0 1024 768" style="enable-background:new 0 0 1024 768;" xml:space="preserve">
<style type="text/css">
	.st0{clip-path:url(#SVGID_00000143609175869066932040000002544149799154025361_);}
	.st1{fill:#FF302F;}
	.st2{fill:#20B15A;}
	.st3{fill:#3686F7;}
	.st4{fill:#FFBA40;}
</style>
<g>
	<g>
		<defs>
			<rect id="SVGID_1_" y="220" width="1024" height="334.3"/>
		</defs>
		<clipPath id="SVGID_00000139978486574657518940000012562750489379053474_">
			<use xlink:href="#SVGID_1_"  style="overflow:visible;"/>
		</clipPath>
		<g style="clip-path:url(#SVGID_00000139978486574657518940000012562750489379053474_);">
			<path class="st1" d="M992.2,424.3l28.7,19.1c-9,13.3-31.3,36.6-69.5,36.6c-47.2,0-82.8-36.6-82.8-82.8
				c0-49.3,35.5-82.8,78.5-82.8s64.2,34,71.1,52.5l3.7,9.6l-111.4,45.6c8.5,16.4,21.8,24.9,40.3,24.9
				C969.9,447.1,982.6,438,992.2,424.3z M904.6,394.5l74.3-30.8c-4.2-10.1-16.4-17.5-30.8-17.5C929.6,345.7,903.6,362.2,904.6,394.5
				z"/>
			<path class="st2" d="M815,229.5H851V472H815V229.5L815,229.5z"/>
			<path class="st3" d="M758.2,320.8h34.5v147.5c0,61-36.1,86.5-79.1,86.5c-40.3,0-64.7-27.1-73.7-48.8l31.8-13.3
				c5.8,13.3,19.6,29.7,41.9,29.7c27.6,0,44.6-17,44.6-48.8v-11.7h-1.1c-8,10.1-23.9,19.1-44,19.1c-41.4,0-79.6-36.1-79.6-82.8
				c0-46.7,38.2-83.3,79.6-83.3c19.6,0,35.5,9,44,18.6h1.1V320.8L758.2,320.8z M760.8,397.2c0-29.2-19.6-50.4-44.6-50.4
				s-46.2,21.2-46.2,50.4c0,28.7,21.2,49.9,46.2,49.9C741.2,447.1,760.8,425.8,760.8,397.2L760.8,397.2z"/>
			<path class="st1" d="M436.1,396.7c0,47.8-37.1,82.8-83.3,82.8c-45.6,0-83.3-35-83.3-82.8s37.1-82.8,83.3-82.8
				C399,313.4,436.1,348.4,436.1,396.7z M400,396.7c0-29.7-21.8-50.4-46.7-50.4c-24.9,0-46.7,20.7-46.7,50.4s21.8,50.4,46.7,50.4
				C378.3,446.5,400,425.8,400,396.7z"/>
			<path class="st4" d="M618.1,396.7c0,47.8-37.1,82.8-83.3,82.8c-45.6,0-83.3-35-83.3-82.8s37.1-82.8,83.3-82.8
				C581,313.9,618.1,348.9,618.1,396.7z M581.5,396.7c0-29.7-21.8-50.4-46.7-50.4c-24.9,0-46.7,20.7-46.7,50.4s21.8,50.4,46.7,50.4
				C560.3,447.1,581.5,426.4,581.5,396.7z"/>
			<path class="st3" d="M133.2,443.4c-52,0-92.8-41.9-92.8-93.9s40.9-93.9,92.8-93.9c28.1,0,48.8,11.1,63.7,24.9l24.9-24.9
				c-21.2-20.2-49.3-35.5-89.1-35.5C61,220,1.1,277.8,1.1,348.9s60,128.9,131.6,128.9c38.7,0,67.9-12.7,90.7-36.1
				c23.3-23.3,30.8-56.2,30.8-82.8c0-8.5-1.1-17-2.1-23.3H133.2v34.5h84.9c-2.7,21.8-9.6,36.1-19.6,46.2
				C186.2,430.1,167.1,443.4,133.2,443.4z"/>
		</g>
	</g>
</g>
</svg>
