<?xml version="1.0" encoding="utf-8"?>
<!-- Generator: Adobe Illustrator 28.3.0, SVG Export Plug-In . SVG Version: 6.00 Build 0)  -->
<svg version="1.1" id="Layer_1" xmlns="http://www.w3.org/2000/svg" xmlns:xlink="http://www.w3.org/1999/xlink" x="0px" y="0px"
	 viewBox="0 0 150 60" style="enable-background:new 0 0 150 60;" xml:space="preserve">
<style type="text/css">
	.st0{fill:#1F70C1;}
</style>
<path class="st0" d="M0,0v4.1h29.2V0H0z M33.3,0v4.1h41.6c0,0-4.2-4.1-9.9-4.1H33.3z M83.1,0v4.1h25.1L106.7,0H83.1z M126.3,0
	l-1.5,4.1h24.9V0H126.3z M0,8v4.1h29.2V8H0z M33.3,8v4.1h46.4c0,0-0.5-3.2-1.5-4.1H33.3z M83.1,8v4.1H111L109.6,8H83.1z M123.3,8
	l-1.4,4.1h27.8V8H123.3z M8.4,15.9V20H21v-4.1H8.4z M41.7,15.9V20h12.6v-4.1H41.7z M66.6,15.9V20h12.6c0,0,0.8-2.2,0.8-4.1H66.6
	L66.6,15.9z M91.5,15.9V20h22.4l-1.5-4.1H91.5L91.5,15.9z M120.6,15.9l-1.5,4.1h22.5v-4.1H120.6z M8.4,23.9V28H21v-4.1H8.4z
	 M41.7,23.9V28H74c0,0,2.7-2.1,3.6-4.1H41.7L41.7,23.9z M91.5,23.9V28h12.6v-2.3l0.8,2.3H128l0.9-2.3V28h12.6v-4.1h-23.7l-1.3,3.5
	l-1.3-3.5H91.5z M8.4,32v4.1H21V32H8.4z M41.7,32v4.1h35.8c-0.9-2-3.6-4.1-3.6-4.1H41.7z M91.5,32v4.1h12.6V32H91.5z M106.5,32
	l1.5,4.1h17.3l1.5-4.1H106.5z M129,32v4.1h12.6V32H129z M8.4,40v4.1H21V40H8.4z M41.7,40v4.1h12.6V40H41.7z M66.6,40v4.1h13.4
	c0-1.9-0.8-4.1-0.8-4.1H66.6z M91.5,40v4.1h12.6V40H91.5z M109.3,40l1.5,4.1h11.6l1.5-4.1H109.3z M129,40v4.1h12.6V40H129z
	 M0.2,47.9V52h29.2v-4.1H0.2L0.2,47.9z M33.3,47.9V52h44.9c0.9-0.9,1.5-4.1,1.5-4.1H33.3L33.3,47.9z M83.4,47.9V52h20.8v-4.1H83.4
	L83.4,47.9z M112.2,47.9l1.5,4.1h5.9l1.4-4.1H112.2L112.2,47.9z M129,47.9V52h21v-4.1H129L129,47.9z M0.2,55.9V60h29.2v-4.1H0.2z
	 M33.3,55.9V60H65c5.6,0,9.9-4.1,9.9-4.1H33.3L33.3,55.9z M83.4,55.9V60h20.8v-4.1H83.4z M115.1,55.9l1.5,4.1h0.3l1.5-4.1H115.1
	L115.1,55.9z M129,55.9V60h21v-4.1H129z"/>
</svg>
