<?xml version="1.0" encoding="utf-8"?>
<!-- Generator: Adobe Illustrator 28.3.0, SVG Export Plug-In . SVG Version: 6.00 Build 0)  -->
<svg version="1.1" id="Layer_1" xmlns="http://www.w3.org/2000/svg" xmlns:xlink="http://www.w3.org/1999/xlink" x="0px" y="0px"
	 viewBox="0 0 1024 768" style="enable-background:new 0 0 1024 768;" xml:space="preserve">
<style type="text/css">
	.st0{fill:#1F70C1;}
</style>
<path class="st0" d="M579.4,378.2v4.1h29.2v-4.1H579.4z M612.7,378.2v4.1h41.6c0,0-4.2-4.1-9.9-4.1H612.7z M662.4,378.2v4.1h25.1
	l-1.5-4.1H662.4z M705.6,378.2l-1.5,4.1H729v-4.1H705.6z M579.4,386.2v4.1h29.2v-4.1H579.4z M612.7,386.2v4.1h46.4
	c0,0-0.5-3.2-1.5-4.1H612.7z M662.4,386.2v4.1h27.9l-1.4-4.1H662.4z M702.6,386.2l-1.4,4.1H729v-4.1H702.6z M587.8,394.1v4.1h12.6
	v-4.1H587.8z M621.1,394.1v4.1h12.6v-4.1H621.1z M646,394.1v4.1h12.6c0,0,0.8-2.2,0.8-4.1L646,394.1L646,394.1z M670.8,394.1v4.1
	h22.4l-1.5-4.1L670.8,394.1L670.8,394.1z M699.9,394.1l-1.5,4.1h22.5v-4.1H699.9z M587.8,402.1v4.1h12.6v-4.1H587.8z M621.1,402.1
	v4.1h32.3c0,0,2.7-2.1,3.6-4.1L621.1,402.1L621.1,402.1z M670.8,402.1v4.1h12.6v-2.3l0.8,2.3h23.1l0.9-2.3v2.3h12.6v-4.1h-23.7
	l-1.3,3.5l-1.3-3.5H670.8z M587.8,410.1v4.1h12.6v-4.1H587.8z M621.1,410.1v4.1h35.8c-0.9-2-3.6-4.1-3.6-4.1H621.1z M670.8,410.1
	v4.1h12.6v-4.1H670.8z M685.8,410.1l1.5,4.1h17.3l1.5-4.1H685.8z M708.3,410.1v4.1h12.6v-4.1H708.3z M587.8,418.1v4.1h12.6v-4.1
	H587.8z M621.1,418.1v4.1h12.6v-4.1H621.1z M646,418.1v4.1h13.4c0-1.9-0.8-4.1-0.8-4.1H646z M670.8,418.1v4.1h12.6v-4.1H670.8z
	 M688.6,418.1l1.5,4.1h11.6l1.5-4.1H688.6z M708.3,418.1v4.1h12.6v-4.1H708.3z M579.6,426v4.1h29.2V426L579.6,426L579.6,426z
	 M612.7,426v4.1h44.9c0.9-0.9,1.5-4.1,1.5-4.1L612.7,426L612.7,426z M662.7,426v4.1h20.8V426L662.7,426L662.7,426z M691.5,426
	l1.5,4.1h5.9l1.4-4.1L691.5,426L691.5,426z M708.3,426v4.1h21V426L708.3,426L708.3,426z M579.6,434v4.1h29.2V434H579.6z M612.7,434
	v4.1h31.7c5.6,0,9.9-4.1,9.9-4.1L612.7,434L612.7,434z M662.7,434v4.1h20.8V434H662.7z M694.4,434l1.5,4.1l0.3,0l1.5-4.1L694.4,434
	L694.4,434z M708.3,434v4.1h21V434H708.3z"/>
</svg>
