<?xml version="1.0" encoding="utf-8"?>
<!-- Generator: Adobe Illustrator 28.3.0, SVG Export Plug-In . SVG Version: 6.00 Build 0)  -->
<svg version="1.1" id="Layer_1" xmlns="http://www.w3.org/2000/svg" xmlns:xlink="http://www.w3.org/1999/xlink" x="0px" y="0px"
	 viewBox="0 0 1024 768" style="enable-background:new 0 0 1024 768;" xml:space="preserve">
<style type="text/css">
	.st0{clip-path:url(#SVGID_00000007410722874659464200000003060894374366877354_);}
	.st1{fill:#F5F5F5;}
	.st2{fill:#2091F9;}
	.st3{fill:none;stroke:#535461;stroke-width:2;stroke-miterlimit:10;}
	.st4{opacity:0.2;fill:#F5F5F5;enable-background:new    ;}
	.st5{opacity:0.2;fill:#2091F9;enable-background:new    ;}
	.st6{opacity:0.5;}
	.st7{opacity:0.5;fill:url(#SVGID_00000023270620643898930730000016684285427307868069_);enable-background:new    ;}
	.st8{fill:#5A5773;}
	.st9{fill:#605D82;}
	.st10{opacity:0.1;enable-background:new    ;}
	.st11{opacity:0.1;}
	.st12{fill:#FAC3CA;}
	.st13{fill:#E1E7EF;}
	.st14{fill:#67647E;}
	.st15{fill:#4A4347;}
	.st16{opacity:0.5;fill:url(#SVGID_00000031198835768367808460000011578549634371235714_);enable-background:new    ;}
	.st17{fill:#FFFFFF;}
	.st18{fill:#E0E0E0;}
	.st19{opacity:5.000000e-02;enable-background:new    ;}
	.st20{fill:#6C63FF;}
	.st21{opacity:0.5;fill:#6C63FF;enable-background:new    ;}
	.st22{opacity:0.4;fill:#6C63FF;enable-background:new    ;}
	.st23{opacity:0.3;fill:#6C63FF;enable-background:new    ;}
</style>
<g>
	<defs>
		<rect id="SVGID_1_" x="174.6" y="127.5" width="677" height="514"/>
	</defs>
	<clipPath id="SVGID_00000088090870431318813880000011480262878804271493_">
		<use xlink:href="#SVGID_1_"  style="overflow:visible;"/>
	</clipPath>
	<g style="clip-path:url(#SVGID_00000088090870431318813880000011480262878804271493_);">
		<path class="st1" d="M538.8,641.5c136.3,0,246.8-31.6,246.8-70.6c0-39-110.5-70.6-246.8-70.6c-136.3,0-246.8,31.6-246.8,70.6
			C292.1,609.9,402.5,641.5,538.8,641.5z"/>
		<path class="st2" d="M773.6,296.2c0,0-43.7,43.8-19,108.8c24.7,65-42.3,173-42.3,173s0.7-0.1,2.1-0.3
			c89.8-15.9,134.4-118.7,84.5-195.1C780.3,354.1,765,320.7,773.6,296.2z"/>
		<path class="st3" d="M773.6,296.2c0,0-24.7,53.7,0,97.5c24.7,43.8,4.2,166.7-61.3,184.3"/>
		<path class="st2" d="M851.5,473.3c0,0-49.9-8-54.4,36.8c-4.5,44.8-95.9,51-95.9,51s0.6,0.4,1.7,1.1
			c75.4,49.6,147.6,31.6,136.7-34.3C835.5,503.5,835.8,478.9,851.5,473.3z"/>
		<path class="st4" d="M851.5,473.3c0,0-49.9-8-54.4,36.8c-4.5,44.8-95.9,51-95.9,51s0.6,0.4,1.7,1.1
			c75.4,49.6,147.6,31.6,136.7-34.3C835.5,503.5,835.8,478.9,851.5,473.3z"/>
		<path class="st3" d="M851.5,473.3c0,0-38.7,8.5-35.5,43.8s-57.5,77.5-114.8,44"/>
		<path class="st5" d="M281.4,127.6c-5.7-0.2-11.5,0-16.8,2c-14.5,5.4-21.4,23.1-19.1,38.5s11.4,28.7,21,40.9
			c9.5,12.2,19.9,24.3,25.1,38.8c2.6,7.3,3.8,15.4,1.2,22.7c-4.1,11.2-16.4,17.5-28.3,18.8c-11.8,1.3-23.7-1.2-35.6-2.1
			c-5-0.4-10.1-0.4-14.8,1.2c-5.2,1.8-9.4,5.4-13.4,9.2c-15.4,14.9-27.7,35.2-25.7,56.6c2.3,24.2,22.4,43.3,44.4,53.6
			c7.3,3.4,15,6.2,21.4,11c16.9,12.8,20.7,36.8,19,58c-1.7,21.2-7.4,42.4-4.2,63.4c3.8,24.4,20.4,46.5,42.8,56.8
			c20,9.2,45,8.6,62.8-4.4c8.6-6.4,15.2-15.1,20.9-24.2c8.6-13.7,15.6-28.4,20.8-43.7c2.5-7.3,4.8-15.1,10.6-20.2
			c3.5-3.1,8.1-4.9,12.6-6.2c13.6-4.1,28-5.2,41.7-8.8c13.7-3.6,27.6-10.4,35.1-22.5c10.6-17.2,5.6-39.1,5.7-59.3
			c0.1-46,27.6-87.2,37.7-132.1c3.3-14.7,4.5-30.9-2.9-44c-5-8.9-13.5-15.3-22.4-20.2c-19.6-10.9-41.9-15.8-63.8-20.5
			c-30.5-6.6-67.5-7.4-91.1-28.6C343.3,142.1,312.3,127.6,281.4,127.6z"/>
		<g class="st6">
			
				<linearGradient id="SVGID_00000136370406087958582550000016890548293355609521_" gradientUnits="userSpaceOnUse" x1="132.5576" y1="470.4138" x2="283.5397" y2="470.4138" gradientTransform="matrix(1 0 0 -1 116 848)">
				<stop  offset="0" style="stop-color:#808080;stop-opacity:0.25"/>
				<stop  offset="0.54" style="stop-color:#808080;stop-opacity:0.12"/>
				<stop  offset="1" style="stop-color:#808080;stop-opacity:0.1"/>
			</linearGradient>
			<path style="opacity:0.5;fill:url(#SVGID_00000136370406087958582550000016890548293355609521_);enable-background:new    ;" d="
				M391.9,305.7c0-11.1-1.7-22.1-5.1-32.7l-8.5-26.3c0-0.4,0-0.9,0-1.3c0.3-16.8-12.8-25.2-17.9-24.3c-5.2,0.9-19.5-6.3-19.5-6.3
				v0.2c-1-1.1-1.9-2.3-2.7-3.6c2.5-1.8,4.6-4.1,6.2-6.7c1.6-2.6,2.6-5.5,3.1-8.6c0.4-3,0.3-6.1-0.5-9.1c-0.8-3-2.1-5.8-4-8.2
				c1.6-1.2,2.7-2.8,3.4-4.6c1.2-3.3,0.3-7.1-1.6-10c-0.8-1.2-1.8-2.4-2.8-3.4c-1.6-1.6-3.4-3-5.3-4.3c-4.7-3.3-9.9-6.1-15.5-7.1
				c-1-0.2-2-0.2-3,0c-0.8,0.3-1.7,0.8-2.4,1.3c-3.9,2.2-8.7,1.2-13.1,1c-4.5-0.2-9.9,1-11.3,5.2c-0.4,1.3-0.4,2.7-0.7,4
				c-0.7,3.2-3.2,5.8-5.1,8.5c-1.9,2.7-3.4,6.4-1.8,9.3c0.5,1,1.4,1.9,1.4,3c0,0.8-0.5,1.5-0.7,2.3c-0.5,1.8,0.4,3.5,1.8,4.8
				c0.6,0.7,1.3,1.2,2.1,1.6c2.2,1.1,4.8,1.5,7.1,2.6c1.1,0.5,2.2,1.3,3.1,2.1c1.1,1.2,2,2.5,2.6,4.1c0.6,1.5,0.8,3.1,0.8,4.7l0.5,0
				c0,0.1,0,0.3,0,0.4c0.5,0.1,1,0.1,1.5,0.1c0.7,1.2,1.6,2.3,2.5,3.4c-0.2,0.6-0.3,1.2-0.5,1.8c-1.7,1.2-15.2,10.2-30.6,8
				c-16.4-2.3-25.9,69.7-25.9,69.7c-0.6,4.1-0.9,8.3-0.9,12.4c-0.1,10.6,2.2,24.5,14.5,22.4l6.6-2.2v35.6c0,0,0.9,9.8-2.3,16.2
				c-3.3,6.5,10.3,4.2,10.3,4.2s0.5,0.5,1.5,1.5l-0.3,0.9l0.4,0.4c-1.8,6.1-4.2,12.1-7.2,17.7l0.4,0.2c-0.2,0.5-0.4,0.7-0.4,0.7
				s5.1,2.6,12,5.9c5.6,19,17.9,62.9,13.8,71.2l0.1,0.2c0.8,1.6,5,10.8,4.1,19.3c-0.8,7.6,9.7,42,13.6,54.5l-1.8,0.4l6.6,23.7
				l-1.4,15.3c0,0-8,21.4,10.8,17.2c18.8-4.2,13.6-21.4,13.6-21.4l0.5-34.9c0,0-1.8-1-4-2c-1.5-4.2-4.9-14-4.9-20.8
				c0-8.8-6.1-46.9-6.1-46.9v-0.1v-0.1v0l0-0.5v-0.1c0-0.5-0.1-1.1-0.1-1.9v0c-0.7-10.3-2.8-45.3-1.3-63.6c1.4-0.9,2.8-1.8,4.2-2.5
				c4.6,11.6,16.4,42.9,15.6,56c-0.9,16.2-0.2,3.5,0,1.4c0.1-0.6,0.1,0.1,0.1,1.9c0,0.3,0,0.7,0,1c0,0.4,0,0.8,0,1.2s0,0.9,0,1.4
				c0,0.2,0,0.5,0,0.7c0,0.5,0,1,0,1.6c0,0.3,0,0.6,0,0.8c0,1.4,0,3-0.1,4.6c0,0.3,0,0.7,0,1c0,1,0,2,0,3c0,1.4-0.1,2.8-0.1,4.2
				c-0.1,3.2-0.2,6.4-0.3,9.4c0,0.3,0,0.7,0,1c0,0.7,0,1.3-0.1,1.9c0,0.6-0.1,1.2-0.1,1.9c0,0.6-0.1,1.2-0.1,1.7
				c0,0.7-0.1,1.3-0.1,1.9L344,507l-0.5,5.9c-0.9,9.3,0.3,18.7,3.5,27.5c0.9,2.4,1.6,4.4,1.7,5.1c0.5,2.3,0,19.1,0,19.1
				s2.8,21.8,16,17.7c5.9-1.9,8.8-7.6,10.2-13.4c1.5-6.7,1-13.6-1.6-20c-1.9-4.7-3.8-11.3-2.4-16.4c2.3-8.8,2.3-21.4,2.3-21.4
				l-1.5-0.2c0.4-0.7,0.7-1.4,1-2.1c0,0-0.5-32.1,3.8-36.2c2.3-2.3,2.1-7.8,1.4-12.4c-1-6.5-1.2-13.2-0.7-19.8
				c0.3-3.4,0.7-6.4,1.2-7.4c1.2-2.5,2.5-27.2-3-39.2l1.1-0.4l-0.2-0.9l0.2-0.1c0.8,2.2,1.8,4.4,2.8,6.5c0.3,0.2,0.6,0.4,0.9,0.5
				c15.2-2.7,15.8-16.9,15-24.7c0.6,0.3,1,0.5,1,0.5l1.4-20.5c1.4-3.3,2-7.4,1.9-12C399.6,326.8,391.9,305.7,391.9,305.7z
				 M375.1,363.9c-1-8.9-2.5-17.3-2.5-17.3l-7.1-25.1v-9.1l11.2,41.8L375.1,363.9z"/>
		</g>
		<path class="st8" d="M343.4,501l-0.5,5.7c-0.8,9.1,0.3,18.3,3.4,26.9c0.8,2.4,1.5,4.3,1.6,5c0.5,2.3,0,18.6,0,18.6
			s2.7,21.3,15.4,17.3c5.7-1.8,8.5-7.5,9.8-13.1c1.5-6.5,0.9-13.3-1.6-19.5c-1.8-4.6-3.7-11.1-2.3-16c2.3-8.6,2.3-20.9,2.3-20.9
			L343.4,501z"/>
		<path class="st9" d="M329.8,402.4c0,0,17.7,43.1,16.8,59c-0.9,15.9-0.2,3.4,0,1.4c0.4-3.6,0,39.5-1.4,44.5c0,0,18.6,13.6,25.8-4.5
			c0,0-0.5-31.3,3.6-35.4c2.2-2.2,2-7.7,1.4-12.1c-1-6.4-1.2-12.9-0.7-19.3c0.3-3.3,0.7-6.2,1.1-7.2c1.4-2.7,2.7-33.6-5.4-42.2
			L329.8,402.4z"/>
		<path class="st10" d="M347.5,507.3c1.4-5,1.8-48.1,1.4-44.5c-0.2,2-0.9,14.5,0-1.4c0.9-15.9-16.8-59-16.8-59l39.6-15.2
			c-0.2-0.2-0.4-0.5-0.6-0.7l-41.3,15.9c0,0,17.7,43.1,16.8,59c-0.9,15.9-0.2,3.4,0,1.4c0.4-3.6,0,39.5-1.4,44.5
			c0,0,7.4,5.4,14.7,4.9C353.4,511.7,347.5,507.3,347.5,507.3z"/>
		<path class="st8" d="M314.4,542.3l6.3,23.2l-1.4,15c0,0-7.7,20.9,10.4,16.8c18.1-4.1,13.1-20.9,13.1-20.9l0.5-34.1
			c0,0-7.3-4.1-10.4-3.6C329.8,539.1,314.4,542.3,314.4,542.3z"/>
		<path class="st9" d="M283.1,391.5c0,0,20.9,67.7,15.9,78.1c0,0,5,10,4.1,19.1c-0.9,9.1,14.5,57.7,14.5,57.7l22.7-4.1
			c0,0-5.4-13.6-5.4-22.3c0-8.6-5.9-45.9-5.9-45.9s-5-68.1,0.9-75.4L283.1,391.5z"/>
		<g class="st11">
			<path class="st10" d="M328,404.3c-3.8,15.4,0.4,72.2,0.4,72.2s5.9,37.2,5.9,45.9c0,6.6,3.2,16.1,4.7,20.2l1.2-0.2
				c0,0-5.4-13.6-5.4-22.3s-5.9-45.9-5.9-45.9S325.1,422.3,328,404.3z"/>
			<path class="st10" d="M299,469.6l0.1,0.2c0-0.2,0.1-0.5,0.1-0.7C299.1,469.3,299,469.5,299,469.6z"/>
			<path class="st10" d="M328.8,401c0.2-0.8,0.6-1.5,1-2.2l-46.7-7.3c0,0,0.3,0.9,0.7,2.5L328.8,401z"/>
		</g>
		<path class="st12" d="M391.9,367c0,0,6.8,25.4-13.6,29.1c-0.3-0.1-0.6-0.2-0.9-0.5c0,0-11.8-23.2-2.7-32.2L391.9,367z"/>
		<path class="st12" d="M308.5,198.1c0,0,1.4,19.1-13.6,28.2c-15,9.1,31.7,34.1,31.7,34.1l24.5-39.1c0,0-10.4,1.3-16.8-16.8
			L308.5,198.1z"/>
		<path class="st10" d="M298.5,227.6c0,0,23.1,48.1,44,2.7l32.2,159.9c0,0-49.9,15.4-50.3,22.7c-0.4,7.3-50.3-18.6-50.3-18.6
			s10.9-20,8.2-32.2C279.5,349.7,298.5,227.6,298.5,227.6z"/>
		<path class="st13" d="M298.5,226.7c0,0,23.1,48.1,44,2.7l32.2,159.9c0,0-49.9,15.4-50.3,22.7c-0.4,7.3-50.3-18.6-50.3-18.6
			s10.9-20,8.2-32.2C279.5,348.8,298.5,226.7,298.5,226.7z"/>
		<path class="st8" d="M321.2,555c0,0-5.9-13.2,7.7-13.2c13.6,0,11.3,11.8,11.3,11.8L321.2,555z"/>
		<path class="st8" d="M352,521c0,0-5.4-14.1,8.2-14.5s6.8,12.7,6.8,12.7L352,521z"/>
		<path class="st10" d="M340.4,216.4c0,0,13.8,7.1,18.8,6.1c5-0.9,18.1,7.7,17.2,25l8.2,25.7c3.3,10.3,4.9,21.1,4.9,31.9
			c0,0,11.8,32.7,5.4,47.2l-1.4,20c0,0-10.4-5.9-21.3-4.1l2.7-16.3l-12.3-46.3l-20.4-49.5L340.4,216.4z"/>
		<path class="st14" d="M340.4,215.5c0,0,13.8,7.1,18.8,6.1c5-0.9,18.1,7.7,17.2,25l8.2,25.7c3.3,10.3,4.9,21.1,4.9,31.9
			c0,0,11.8,32.7,5.4,47.2l-1.4,20c0,0-10.4-5.9-21.3-4.1l2.7-16.3l-12.2-46.3l-20.4-49.5L340.4,215.5z"/>
		<path class="st10" d="M363.3,270.7V322l6.8,24.5c0,0,4.5,26.8,3.2,35c-1.4,8.2-23.1,10-29,3.2c-5.9-6.8-2.7-65-2.7-65l-1.1-85.1
			l0.9-2.7L363.3,270.7z"/>
		<path class="st14" d="M364.3,268.4v51.3l6.8,24.5c0,0,4.5,26.8,3.2,35s-23.1,10-29,3.2c-5.9-6.8-2.7-65-2.7-65l-1.1-85.2
			L364.3,268.4z"/>
		<path class="st10" d="M272.9,311.1l14.5,45.2l-6.8,19.3c0,0,32.2,34.1,52.6,17.7c0,0,2.3-69.5-2.3-85.8
			c-4.5-16.3-26.3-71.3-26.3-71.3l-4.5-14.5l-24,13.6L272.9,311.1z"/>
		<path class="st14" d="M271.8,308.9v44.5c0,0,0.9,9.5-2.3,15.9c-3.2,6.4,10,4.1,10,4.1s32.2,34.1,52.6,17.7c0,0,2.3-69.5-2.3-85.8
			c-4.5-16.3-26.3-71.3-26.3-71.3l-4.5-14.5l-24,13.6L271.8,308.9z"/>
		<path class="st10" d="M306.9,211.5c0,0-13.8,10.2-29.7,7.9c-15.9-2.3-24.9,68.1-24.9,68.1s-5.9,36.3,13.1,33.2l42.2-14.1
			c0,0-9.1-9.5-7.7-21.8l-20.4,8.2l0.9-39.1L306.9,211.5z"/>
		<path class="st10" d="M253.2,286.6c0,0-5.9,36.3,13.1,33.2l42.2-14.1c0,0-9.1-9.5-7.7-21.8l-20.4,8.2L253.2,286.6z"/>
		<path class="st12" d="M299.8,288.7c0,0,14.2-18.6,24.6-9.7c10.4,8.9-20.8,25.3-20.8,25.3L299.8,288.7z"/>
		<path class="st14" d="M306.9,210.5c0,0-13.8,10.2-29.7,7.9c-15.9-2.3-24.9,68.1-24.9,68.1s-5.9,36.3,13.1,33.2l42.2-14.1
			c0,0-9.1-9.5-7.7-21.8l-20.4,8.2l0.9-39.1l23.1-19.1L306.9,210.5z"/>
		<path class="st10" d="M334.8,205.3l-25.8-6.4c0,0,1.3,1.5-0.2,7.5c4.2,4.8,9.3,11.1,16.1,11.1c4.9,0,9.6-1.6,13.6-4.5
			C336.9,210.6,335.7,208,334.8,205.3z"/>
		<path class="st12" d="M324.3,216.7c12.5,0,22.7-10.2,22.7-22.7s-10.2-22.7-22.7-22.7s-22.7,10.2-22.7,22.7
			S311.8,216.7,324.3,216.7z"/>
		<path class="st10" d="M332.9,184.1c5.3-0.9,11-3.2,12.8-8.3c1.1-3.2,0.3-6.9-1.6-9.8c-1.8-2.9-4.5-5.1-7.3-7.1
			c-4.5-3.2-9.5-5.9-15-6.9c-0.9-0.2-1.9-0.2-2.9,0c-0.8,0.3-1.6,0.8-2.3,1.3c-3.7,2.2-8.4,1.2-12.7,1c-4.3-0.2-9.5,1-10.9,5.1
			c-0.4,1.3-0.4,2.6-0.7,3.9c-0.7,3.2-3.1,5.6-4.9,8.3c-1.8,2.6-3.3,6.2-1.7,9.1c0.5,1,1.4,1.9,1.4,3c-0.1,0.8-0.4,1.5-0.7,2.3
			c-0.6,2.3,1.2,4.7,3.4,5.8c2.2,1.1,4.6,1.5,6.8,2.5c2.1,1,3.8,2.6,5,4.6c1.2,2,1.8,4.2,1.7,6.5c2,0.2,4.3,0.4,5.7-1.1
			c0.6-0.7,0.9-1.6,1.5-2.3c0.7-0.9,1.8-1.5,2.7-2.2c4.7-3.9,1.4-9.3,4.1-13.5c1.4-2.2,3.7-1.5,5.9-1.5
			C326.5,184.9,329.7,184.6,332.9,184.1z"/>
		<path class="st15" d="M332.5,183.7c5.3-0.9,11-3.2,12.8-8.3c1.1-3.2,0.3-6.9-1.6-9.8c-1.8-2.9-4.5-5.1-7.3-7.1
			c-4.5-3.2-9.5-5.9-15-6.9c-0.9-0.2-1.9-0.2-2.9,0c-0.8,0.3-1.6,0.8-2.3,1.3c-3.7,2.2-8.4,1.2-12.7,1s-9.5,1-10.9,5.1
			c-0.4,1.3-0.4,2.6-0.7,3.9c-0.7,3.2-3.1,5.6-4.9,8.3c-1.8,2.6-3.3,6.2-1.7,9.1c0.5,1,1.4,1.9,1.4,3c-0.1,0.8-0.4,1.5-0.7,2.3
			c-0.6,2.3,1.2,4.7,3.4,5.8c2.2,1.1,4.6,1.5,6.8,2.5c2.1,1,3.8,2.6,5,4.6c1.2,2,1.8,4.3,1.7,6.6c2,0.2,4.3,0.4,5.7-1.1
			c0.6-0.7,0.9-1.6,1.5-2.3c0.7-0.9,1.8-1.5,2.7-2.2c4.7-3.9,1.4-9.3,4.1-13.5c1.4-2.2,3.7-1.5,5.9-1.5
			C326,184.4,329.3,184.2,332.5,183.7z"/>
		<path class="st10" d="M359.9,260c0,0,5,25.9,2.7,35.9c-1.4,5.8-1.2,11.9,0.6,17.6"/>
		<path class="st10" d="M279.4,270.9c0,0-2.2,17.3,1.4,20.9L279.4,270.9z"/>
		<path d="M406,483.6c0.3,0,0.5-0.1,0.7-0.3c0.2-0.2,0.3-0.5,0.3-0.7s-0.1-0.5-0.3-0.7c-0.2-0.2-0.5-0.3-0.7-0.3
			c-0.3,0-0.6,0.1-0.7,0.3c-0.2,0.2-0.3,0.5-0.3,0.7s0.1,0.6,0.3,0.7C405.4,483.5,405.7,483.6,406,483.6z"/>
		<g class="st6">
			
				<linearGradient id="SVGID_00000087403388442018237060000008641872733995421346_" gradientUnits="userSpaceOnUse" x1="423.0051" y1="-279526.1875" x2="423.0051" y2="-76842.7031" gradientTransform="matrix(1 0 0 -1 116 848)">
				<stop  offset="0" style="stop-color:#808080;stop-opacity:0.25"/>
				<stop  offset="0.54" style="stop-color:#808080;stop-opacity:0.12"/>
				<stop  offset="1" style="stop-color:#808080;stop-opacity:0.1"/>
			</linearGradient>
			<path style="opacity:0.5;fill:url(#SVGID_00000087403388442018237060000008641872733995421346_);enable-background:new    ;" d="
				M731.6,360.2v-0.6L539.2,211.5c-0.1-0.1-0.3-0.1-0.4-0.1s-0.3,0-0.4,0.1L346,359.6v229.7h0.4v0.4H732V360L731.6,360.2z"/>
		</g>
		<path class="st17" d="M725,582.9H352.7V361.1l186.1-143.4L725,361.1V582.9z"/>
		<path class="st18" d="M711.6,569.7H366.1V364l172.7-133l172.7,133V569.7z"/>
		<path class="st2" d="M597.4,227.9l-210.7,55.3L457,551.6l210.7-55.3L597.4,227.9z"/>
		<path class="st1" d="M648.8,268.6H431v277.5h217.9V268.6z"/>
		<path class="st19" d="M354.5,361.5l186.1,110.9L354.5,583.2V361.5z"/>
		<path class="st17" d="M353.1,361.5l186.1,110.9L353.1,583.2V361.5z"/>
		<path class="st19" d="M723.9,361.5L537.8,472.4l186.1,110.9V361.5z"/>
		<path class="st17" d="M725.3,361.5L539.2,472.4l186.1,110.9V361.5z"/>
		<path class="st19" d="M353.1,579.7l186.1-145.5l186.1,145.5H353.1z"/>
		<path class="st17" d="M353.1,583.2l186.1-145.5l186.1,145.5H353.1z"/>
		<path class="st3" d="M390.9,600.1c0,0-9.3-31.8,1.8-55.2c4.7-9.8,6.1-20.8,4.1-31.5c-1-5.1-2.5-10-4.4-14.8"/>
		<path class="st20" d="M399.1,483.8c0,3.9-7.1,15.2-7.1,15.2s-7.1-11.3-7.1-15.2c0-1.9,0.7-3.7,2.1-5c1.3-1.3,3.1-2.1,5-2.1
			s3.7,0.7,5,2.1C398.4,480.2,399.1,482,399.1,483.8z"/>
		<path class="st20" d="M410.8,505.4c-2.1,3.3-14.2,8.9-14.2,8.9s0.2-13.3,2.3-16.6c1.1-1.5,2.6-2.5,4.4-2.8c1.8-0.3,3.6,0,5.1,1
			c1.5,1,2.6,2.5,3,4.3C412,502,411.7,503.9,410.8,505.4z"/>
		<path class="st20" d="M410.3,542.3c-3.5,1.8-16.7,0.5-16.7,0.5s6.9-11.4,10.4-13.1c0.8-0.5,1.7-0.8,2.7-0.9c0.9-0.1,1.9,0,2.8,0.3
			c0.9,0.3,1.8,0.7,2.5,1.4c0.7,0.6,1.3,1.4,1.8,2.2c0.4,0.9,0.7,1.8,0.7,2.7c0.1,1-0.1,1.9-0.4,2.8c-0.3,0.9-0.8,1.7-1.5,2.4
			C411.9,541.3,411.1,541.9,410.3,542.3L410.3,542.3z"/>
		<path class="st20" d="M403.6,570.1c-3.1,2.3-16.4,3.4-16.4,3.4s4.9-12.4,8-14.7c1.5-1,3.3-1.4,5.1-1.1c1.8,0.3,3.4,1.3,4.5,2.8
			s1.6,3.3,1.3,5.1C405.9,567.3,405,569,403.6,570.1z"/>
		<path class="st20" d="M381.8,515.1c2.8,2.7,15.8,5.5,15.8,5.5s-3.2-12.9-6-15.6c-1.4-1.2-3.1-1.8-4.9-1.8s-3.5,0.8-4.8,2.1
			s-2,3-2,4.9C379.9,512,380.6,513.8,381.8,515.1L381.8,515.1z"/>
		<path class="st20" d="M374.5,547.7c3.5,1.8,16.7,0.5,16.7,0.5s-6.9-11.4-10.4-13.1c-1.7-0.8-3.5-0.8-5.3-0.2
			c-1.7,0.6-3.1,1.9-3.9,3.5c-0.8,1.6-1,3.5-0.4,5.2C371.7,545.4,372.9,546.8,374.5,547.7L374.5,547.7z"/>
		<path class="st20" d="M371.6,580.4c3.1,2.3,16.4,3.4,16.4,3.4s-4.9-12.4-8-14.7c-0.7-0.6-1.6-1.1-2.5-1.3
			c-0.9-0.3-1.9-0.3-2.8-0.2c-0.9,0.1-1.9,0.4-2.7,0.9c-0.8,0.5-1.5,1.1-2.1,1.9c-0.6,0.8-1,1.6-1.2,2.6c-0.2,0.9-0.2,1.9-0.1,2.8
			c0.2,0.9,0.5,1.8,1,2.6C370.2,579.2,370.9,579.9,371.6,580.4z"/>
		<path class="st21" d="M531.1,281.3h-87.4v7.1h87.4V281.3z"/>
		<path class="st21" d="M632.6,309.6h-189v7.1h189V309.6z"/>
		<path class="st21" d="M632.6,328h-189v7.1h189V328z"/>
		<path class="st22" d="M632.6,346.3h-189v7.1h189V346.3z"/>
		<path class="st22" d="M632.6,364.7h-189v7.1h189V364.7z"/>
		<path class="st23" d="M551.5,383H443.7v7.1h107.9V383z"/>
		<path class="st23" d="M591,401.4H443.7v7.1H591V401.4z"/>
	</g>
</g>
</svg>
